<svg id="Logos" xmlns="http://www.w3.org/2000/svg" xmlns:xlink="http://www.w3.org/1999/xlink" width="477.3" height="74.775" viewBox="0 0 477.3 74.775">
  <defs>
    <linearGradient id="linear-gradient" x1="0.114" y1="0.679" x2="0.874" y2="0.331" gradientUnits="objectBoundingBox">
      <stop offset="0" stop-color="#fff"/>
      <stop offset="0.2" stop-color="#fbfbfb"/>
      <stop offset="0.36" stop-color="#f1f1f1"/>
      <stop offset="0.52" stop-color="#dfdfdf"/>
      <stop offset="0.66" stop-color="#c7c6c7"/>
      <stop offset="0.81" stop-color="#a7a7a7"/>
      <stop offset="0.95" stop-color="#818081"/>
      <stop offset="1" stop-color="#706f70"/>
    </linearGradient>
    <linearGradient id="linear-gradient-2" x1="0.671" y1="0.371" x2="0.121" y2="0.787" xlink:href="#linear-gradient"/>
    <clipPath id="clip-path">
      <rect id="Rectangle_1627" data-name="Rectangle 1627" width="251.736" height="53.042" fill="none"/>
    </clipPath>
  </defs>
  <g id="Layer_2" data-name="Layer 2" transform="translate(0 0)">
    <g id="Layer_1" data-name="Layer 1">
      <g id="Group_3447" data-name="Group 3447">
        <g id="Group_3443" data-name="Group 3443" transform="translate(320.856)">
          <g id="Group_3437" data-name="Group 3437" transform="translate(0 21.72)">
            <path id="Path_4248" data-name="Path 4248" d="M321.128,17.17c-10.651,0-18.2,7.59-22.935,13.3l-.278-.329c-7.211-8.6-14.851-12.966-22.745-12.966a21.53,21.53,0,0,0,0,43.061c10.651,0,18.2-7.577,22.935-13.3l.278.329c7.211,8.6,14.851,12.966,22.745,12.966a21.418,21.418,0,0,0,12.157-3.77l8.551-23.618a21.571,21.571,0,0,0-20.708-15.661Zm-45.958,32.8a11.271,11.271,0,0,1,0-22.542c4.82,0,9.842,3.238,15.383,9.918l1.075,1.3c-3.985,5.022-9.323,11.334-16.458,11.334Zm45.958,0c-4.82,0-9.842-3.238-15.383-9.918l-1.075-1.3c3.972-5.022,9.323-11.334,16.458-11.334a11.271,11.271,0,0,1,0,22.542Z" transform="translate(-253.64 -17.17)" fill="#fff"/>
            <path id="Path_4249" data-name="Path 4249" d="M279.95,39.554a54.8,54.8,0,0,0,6.629,7.805,58.659,58.659,0,0,0,4.554-4.934c-1.176-1.493-5.983-7.666-6.477-8.286a64.284,64.284,0,0,1-4.706,5.427Z" transform="translate(-246.668 -12.673)" opacity="0.6" fill="url(#linear-gradient)"/>
            <path id="Path_4250" data-name="Path 4250" d="M288.86,28.679c1.354,1.7,3.959,5.149,6.477,8.286a61.925,61.925,0,0,1,4.352-5.06c-1.176-1.493-5.933-7.362-6.439-7.995A61.228,61.228,0,0,0,288.86,28.679Z" transform="translate(-244.306 -15.384)" opacity="0.6" fill="url(#linear-gradient-2)"/>
          </g>
          <g id="Group_3442" data-name="Group 3442" transform="translate(79.898)">
            <g id="Group_3439" data-name="Group 3439">
              <path id="Path_4251" data-name="Path 4251" d="M344.643,52.53h-15.1l-2.416,7.147H316.8L331.436,19.21h11.41l14.636,40.468H347.046L344.63,52.53Zm-2.543-7.6-5.009-14.813-4.959,14.813Z" transform="translate(-316.8 5.091)" fill="#ef5323"/>
              <g id="Group_3438" data-name="Group 3438" transform="translate(31.473)">
                <path id="Path_4252" data-name="Path 4252" d="M342.009,9.285a1.571,1.571,0,0,1,.19.013c4.149.38,5.655,1.316,6.173,1.847s1.467,2.037,1.847,6.173c0,.089.013.152.013.19a.369.369,0,0,0,.734,0,1.342,1.342,0,0,1,.013-.19c.379-4.149,1.316-5.655,1.847-6.173S354.861,9.677,359,9.3c.089,0,.152-.013.19-.013a.369.369,0,0,0,0-.734,1.343,1.343,0,0,1-.19-.013c-4.149-.38-5.655-1.316-6.173-1.847s-1.467-2.037-1.847-6.173c0-.089-.013-.152-.013-.19a.369.369,0,0,0-.734,0,1.342,1.342,0,0,1-.013.19c-.379,4.149-1.316,5.655-1.847,6.173s-2.037,1.467-6.173,1.847c-.089,0-.152.013-.19.013a.369.369,0,0,0,0,.734Z" transform="translate(-341.68 0)" fill="#ef5323"/>
                <path id="Path_4253" data-name="Path 4253" d="M355.88,24.69c-.784-.784-2.4-1.923-5.68-2.91V59h9.854V36.226c-1.1-7.413-3.023-10.386-4.174-11.537Z" transform="translate(-339.422 5.772)" fill="#ef5323"/>
              </g>
              <path id="Path_4254" data-name="Path 4254" d="M385.853,22.442c-.076,0-.228-.025-.443-.038-10.31-.936-14.092-3.3-15.42-4.63s-3.706-5.111-4.63-15.42c-.025-.215-.038-.367-.038-.443a.6.6,0,0,0-1.189,0c0,.076-.025.228-.038.443-.936,10.31-3.3,14.092-4.63,15.42s-5.111,3.706-15.42,4.63c-.215.025-.367.038-.443.038a.6.6,0,0,0,0,1.189c.076,0,.228.025.443.038,10.31.936,14.092,3.3,15.42,4.63s3.706,5.111,4.63,15.42c.025.215.038.367.038.443a.6.6,0,0,0,1.189,0c0-.076.025-.228.038-.443.936-10.31,3.3-14.092,4.63-15.42s5.111-3.706,15.42-4.63c.215-.025.367-.038.443-.038a.6.6,0,0,0,0-1.189Z" transform="translate(-309.838 0.366)" fill="#ef5323"/>
            </g>
            <g id="Group_3441" data-name="Group 3441">
              <path id="Path_4255" data-name="Path 4255" d="M344.643,52.53h-15.1l-2.416,7.147H316.8L331.436,19.21h11.41l14.636,40.468H347.046L344.63,52.53Zm-2.543-7.6-5.009-14.813-4.959,14.813Z" transform="translate(-316.8 5.091)" fill="#ef5323"/>
              <g id="Group_3440" data-name="Group 3440" transform="translate(31.473)">
                <path id="Path_4256" data-name="Path 4256" d="M342.009,9.285a1.571,1.571,0,0,1,.19.013c4.149.38,5.655,1.316,6.173,1.847s1.467,2.037,1.847,6.173c0,.089.013.152.013.19a.369.369,0,0,0,.734,0,1.342,1.342,0,0,1,.013-.19c.379-4.149,1.316-5.655,1.847-6.173S354.861,9.677,359,9.3c.089,0,.152-.013.19-.013a.369.369,0,0,0,0-.734,1.343,1.343,0,0,1-.19-.013c-4.149-.38-5.655-1.316-6.173-1.847s-1.467-2.037-1.847-6.173c0-.089-.013-.152-.013-.19a.369.369,0,0,0-.734,0,1.342,1.342,0,0,1-.013.19c-.379,4.149-1.316,5.655-1.847,6.173s-2.037,1.467-6.173,1.847c-.089,0-.152.013-.19.013a.369.369,0,0,0,0,.734Z" transform="translate(-341.68 0)" fill="#ef5323"/>
                <path id="Path_4257" data-name="Path 4257" d="M355.88,24.69c-.784-.784-2.4-1.923-5.68-2.91V59h9.854V36.226c-1.1-7.413-3.023-10.386-4.174-11.537Z" transform="translate(-339.422 5.772)" fill="#ef5323"/>
              </g>
              <path id="Path_4258" data-name="Path 4258" d="M385.853,22.442c-.076,0-.228-.025-.443-.038-10.31-.936-14.092-3.3-15.42-4.63s-3.706-5.111-4.63-15.42c-.025-.215-.038-.367-.038-.443a.6.6,0,0,0-1.189,0c0,.076-.025.228-.038.443-.936,10.31-3.3,14.092-4.63,15.42s-5.111,3.706-15.42,4.63c-.215.025-.367.038-.443.038a.6.6,0,0,0,0,1.189c.076,0,.228.025.443.038,10.31.936,14.092,3.3,15.42,4.63s3.706,5.111,4.63,15.42c.025.215.038.367.038.443a.6.6,0,0,0,1.189,0c0-.076.025-.228.038-.443.936-10.31,3.3-14.092,4.63-15.42s5.111-3.706,15.42-4.63c.215-.025.367-.038.443-.038a.6.6,0,0,0,0-1.189Z" transform="translate(-309.838 0.366)" fill="#ef5323"/>
            </g>
          </g>
        </g>
        <g id="Group_3444" data-name="Group 3444" transform="translate(282.046 39.696)">
          <line id="Line_21" data-name="Line 21" x2="11.967" y2="11.967" fill="#fff" stroke="#fff" stroke-miterlimit="10" stroke-width="0.5"/>
          <line id="Line_22" data-name="Line 22" x1="11.967" y2="11.967" fill="#fff" stroke="#fff" stroke-miterlimit="10" stroke-width="0.5"/>
        </g>
        <g id="White_logomark_with_black_tagline" data-name="White logomark with black tagline" transform="translate(0 21.733)">
          <g id="Group_3446" data-name="Group 3446" clip-path="url(#clip-path)">
            <g id="Group_3445" data-name="Group 3445" clip-path="url(#clip-path)">
              <path id="Path_4259" data-name="Path 4259" d="M89.991,18.59H77.05V46.041H89.991c8.286,0,13.409-6.452,13.409-13.751s-5.123-13.7-13.409-13.7m0,23.4-8.5.291V22.651h8.5c5.553,0,8.716,4.693,8.716,9.69s-3.163,9.652-8.716,9.652" transform="translate(20.419 -16.806)" fill="#fff"/>
              <path id="Path_4260" data-name="Path 4260" d="M0,22.651H10.715v23.39h4.44V22.651h8.336l2.34-4.048V18.59H0Z" transform="translate(0 -16.806)" fill="#fff"/>
              <path id="Path_4261" data-name="Path 4261" d="M183.46,34.352h15.5v-4.1h-15.5v-7.6h18.507l2.328-4.061H179.02V46.041h25.275V41.993H183.46Z" transform="translate(47.442 -16.806)" fill="#fff"/>
              <path id="Path_4262" data-name="Path 4262" d="M44.941,34.3c4.617-.38,6.616-3.922,6.616-7.818,0-4.225-2.568-7.894-7.514-7.894H25.22V46.041h4.44v-11.7h9.816l6.742,11.7h4.959L44.385,34.3h.557Zm-.9-4.061H29.66v-7.6H44.043c2.138,0,3.074,1.885,3.074,3.884s-.848,3.719-3.074,3.719" transform="translate(6.683 -16.806)" fill="#fff"/>
              <path id="Path_4263" data-name="Path 4263" d="M159.163,32.341c0-5,3.163-9.69,8.716-9.69h8.551l2.34-4.061H167.879c-8.286,0-13.409,6.312-13.409,13.7s5.123,13.751,13.409,13.751h10.892V41.98H167.879c-5.553,0-8.716-4.693-8.716-9.652" transform="translate(40.936 -16.806)" fill="#fff"/>
              <path id="Path_4264" data-name="Path 4264" d="M150.121,18.59v20.4L132.9,18.59H128.73V46.041h4.44V25.6l17.2,20.443h4.187V18.59h-4.44Z" transform="translate(34.114 -16.806)" fill="#fff"/>
              <path id="Path_4265" data-name="Path 4265" d="M126.057,22.651l2.328-4.061H103.11V46.041h25.275V41.993H107.55V34.339h15.5V30.253h-15.5v-7.6Z" transform="translate(27.325 -16.806)" fill="#fff"/>
              <path id="Path_4266" data-name="Path 4266" d="M74.387,22.651l2.328-4.061H51.44V46.041H76.715V41.993H55.88V34.339h15.5V30.253H55.88v-7.6Z" transform="translate(13.632 -16.806)" fill="#fff"/>
              <path id="Path_4267" data-name="Path 4267" d="M89.991,18.59H77.05V46.041H89.991c8.286,0,13.409-6.452,13.409-13.751s-5.123-13.7-13.409-13.7m0,23.4-8.5.291V22.651h8.5c5.553,0,8.716,4.693,8.716,9.69s-3.163,9.652-8.716,9.652" transform="translate(20.419 -16.806)" fill="#ef5323"/>
              <path id="Path_4268" data-name="Path 4268" d="M0,22.651H10.715v23.39h4.44V22.651h8.336l2.34-4.048V18.59H0Z" transform="translate(0 -16.806)" fill="#ef5323"/>
              <path id="Path_4269" data-name="Path 4269" d="M183.46,34.352h15.5v-4.1h-15.5v-7.6h18.507l2.328-4.061H179.02V46.041h25.275V41.993H183.46Z" transform="translate(47.442 -16.806)" fill="#ef5323"/>
              <path id="Path_4270" data-name="Path 4270" d="M44.941,34.3c4.617-.38,6.616-3.922,6.616-7.818,0-4.225-2.568-7.894-7.514-7.894H25.22V46.041h4.44v-11.7h9.816l6.742,11.7h4.959L44.385,34.3h.557Zm-.9-4.061H29.66v-7.6H44.043c2.138,0,3.074,1.885,3.074,3.884s-.848,3.719-3.074,3.719" transform="translate(6.683 -16.806)" fill="#ef5323"/>
              <path id="Path_4271" data-name="Path 4271" d="M159.163,32.341c0-5,3.163-9.69,8.716-9.69h8.551l2.34-4.061H167.879c-8.286,0-13.409,6.312-13.409,13.7s5.123,13.751,13.409,13.751h10.892V41.98H167.879c-5.553,0-8.716-4.693-8.716-9.652" transform="translate(40.936 -16.806)" fill="#ef5323"/>
              <path id="Path_4272" data-name="Path 4272" d="M150.121,18.59v20.4L132.9,18.59H128.73V46.041h4.44V25.6l17.2,20.443h4.187V18.59h-4.44Z" transform="translate(34.114 -16.806)" fill="#ef5323"/>
              <path id="Path_4273" data-name="Path 4273" d="M126.057,22.651l2.328-4.061H103.11V46.041h25.275V41.993H107.55V34.339h15.5V30.253h-15.5v-7.6Z" transform="translate(27.325 -16.806)" fill="#ef5323"/>
              <path id="Path_4274" data-name="Path 4274" d="M74.387,22.651l2.328-4.061H51.44V46.041H76.715V41.993H55.88V34.339h15.5V30.253H55.88v-7.6Z" transform="translate(13.632 -16.806)" fill="#ef5323"/>
              <path id="Path_4275" data-name="Path 4275" d="M58.192,55.069a2.663,2.663,0,0,1,.595,1.7,2.61,2.61,0,0,1-.417,1.455,2.871,2.871,0,0,1-1.214,1.025,4.224,4.224,0,0,1-1.847.38H51.07V49.01h4.048a4.391,4.391,0,0,1,1.86.367,2.687,2.687,0,0,1,1.176.987,2.5,2.5,0,0,1,.392,1.379,2.365,2.365,0,0,1-.493,1.531,2.819,2.819,0,0,1-1.316.9,2.4,2.4,0,0,1,1.455.9M52.8,53.463h2.151a2.065,2.065,0,0,0,1.341-.392,1.345,1.345,0,0,0,.481-1.126,1.4,1.4,0,0,0-.481-1.126,1.976,1.976,0,0,0-1.341-.4H52.8V53.45Zm3.744,4.314a1.453,1.453,0,0,0,.506-1.189,1.571,1.571,0,0,0-.531-1.24,2.118,2.118,0,0,0-1.417-.455h-2.29v3.314h2.353a2.059,2.059,0,0,0,1.392-.43" transform="translate(13.534 -8.745)" fill="#fff"/>
              <path id="Path_4276" data-name="Path 4276" d="M66.435,55.634H60.009A2.311,2.311,0,0,0,62.4,57.861a2.043,2.043,0,0,0,1.986-1.176h1.872a3.752,3.752,0,0,1-1.379,1.9,4.063,4.063,0,0,1-2.479.746,4.261,4.261,0,0,1-2.163-.544,3.862,3.862,0,0,1-1.493-1.531,4.594,4.594,0,0,1-.544-2.277,4.694,4.694,0,0,1,.531-2.277,3.721,3.721,0,0,1,1.48-1.518A4.414,4.414,0,0,1,62.4,50.65a4.265,4.265,0,0,1,2.125.519,3.74,3.74,0,0,1,1.455,1.455,4.413,4.413,0,0,1,.519,2.163,5.828,5.828,0,0,1-.063.86m-1.758-1.429a1.966,1.966,0,0,0-.683-1.543,2.422,2.422,0,0,0-1.67-.582,2.239,2.239,0,0,0-1.543.569,2.345,2.345,0,0,0-.759,1.543h4.655Z" transform="translate(15.423 -8.31)" fill="#fff"/>
              <path id="Path_4277" data-name="Path 4277" d="M73.894,50.75,68.733,63.109H66.924l1.72-4.086L65.33,50.75h1.935l2.366,6.414,2.454-6.414Z" transform="translate(17.313 -8.284)" fill="#fff"/>
              <path id="Path_4278" data-name="Path 4278" d="M74.752,58.787a3.924,3.924,0,0,1-1.518-1.531,4.594,4.594,0,0,1-.544-2.277,4.474,4.474,0,0,1,.569-2.277A3.988,3.988,0,0,1,74.8,51.171a4.773,4.773,0,0,1,4.377,0A3.9,3.9,0,0,1,80.723,52.7a4.507,4.507,0,0,1,.569,2.277,4.389,4.389,0,0,1-.582,2.277,3.918,3.918,0,0,1-1.581,1.531,4.506,4.506,0,0,1-2.2.544,4.247,4.247,0,0,1-2.151-.544m3.378-1.29a2.394,2.394,0,0,0,.949-.961,3.145,3.145,0,0,0,.367-1.556,3.061,3.061,0,0,0-.354-1.543,2.333,2.333,0,0,0-.936-.949,2.559,2.559,0,0,0-1.252-.316,2.478,2.478,0,0,0-1.24.316,2.355,2.355,0,0,0-.911.949,3.2,3.2,0,0,0-.342,1.543,2.923,2.923,0,0,0,.7,2.1,2.3,2.3,0,0,0,1.746.734,2.607,2.607,0,0,0,1.265-.316" transform="translate(19.263 -8.313)" fill="#fff"/>
              <path id="Path_4279" data-name="Path 4279" d="M86.851,51.047a2.942,2.942,0,0,1,1.227,1.227,4.065,4.065,0,0,1,.443,1.948v4.959H86.8V54.476a2.446,2.446,0,0,0-.569-1.733,2.265,2.265,0,0,0-3.087,0,2.446,2.446,0,0,0-.569,1.733v4.706H80.83V50.769h1.746v.961a2.827,2.827,0,0,1,1.088-.81,3.548,3.548,0,0,1,1.417-.291,3.785,3.785,0,0,1,1.784.417" transform="translate(21.421 -8.316)" fill="#fff"/>
              <path id="Path_4280" data-name="Path 4280" d="M88.734,53.28a4.03,4.03,0,0,1,1.429-1.518,3.823,3.823,0,0,1,2.024-.544,3.9,3.9,0,0,1,1.619.354,3.418,3.418,0,0,1,1.278.949V48.46h1.758v11.3H95.084V58.492A3.354,3.354,0,0,1,93.9,59.5a3.647,3.647,0,0,1-1.733.392,3.814,3.814,0,0,1-3.441-2.113,4.784,4.784,0,0,1-.531-2.264,4.612,4.612,0,0,1,.531-2.239m6.009.759a2.484,2.484,0,0,0-.936-.974,2.454,2.454,0,0,0-1.252-.342,2.572,2.572,0,0,0-1.252.329,2.447,2.447,0,0,0-.936.961A2.978,2.978,0,0,0,90,55.519a3.144,3.144,0,0,0,.354,1.531,2.5,2.5,0,0,0,.949,1,2.443,2.443,0,0,0,1.24.342,2.488,2.488,0,0,0,1.252-.342,2.518,2.518,0,0,0,.936-.987,3.06,3.06,0,0,0,.354-1.518,3.115,3.115,0,0,0-.354-1.505" transform="translate(23.371 -8.891)" fill="#fff"/>
              <path id="Path_4281" data-name="Path 4281" d="M107.023,53.693a2.778,2.778,0,0,1-1.214,1.164,4.48,4.48,0,0,1-2.151.455h-1.923v4.3H99.99V49h3.669a4.7,4.7,0,0,1,2.075.417A2.859,2.859,0,0,1,107,50.556a3.137,3.137,0,0,1,.417,1.607,3.228,3.228,0,0,1-.38,1.531m-1.91-.24a1.64,1.64,0,0,0,.493-1.278q0-1.746-1.973-1.746h-1.923V53.9h1.923a2.116,2.116,0,0,0,1.48-.455" transform="translate(26.498 -8.747)" fill="#fff"/>
              <path id="Path_4282" data-name="Path 4282" d="M108.779,58.787a3.893,3.893,0,0,1-1.505-1.531,4.594,4.594,0,0,1-.544-2.277A4.474,4.474,0,0,1,107.3,52.7a3.988,3.988,0,0,1,1.543-1.531,4.773,4.773,0,0,1,4.377,0,3.824,3.824,0,0,1,1.543,1.531,4.507,4.507,0,0,1,.569,2.277,4.389,4.389,0,0,1-.582,2.277,4,4,0,0,1-1.581,1.531,4.506,4.506,0,0,1-2.2.544,4.247,4.247,0,0,1-2.151-.544m3.365-1.29a2.394,2.394,0,0,0,.949-.961,3.145,3.145,0,0,0,.367-1.556,3.061,3.061,0,0,0-.354-1.543,2.333,2.333,0,0,0-.936-.949,2.559,2.559,0,0,0-1.252-.316,2.478,2.478,0,0,0-1.24.316,2.355,2.355,0,0,0-.911.949,3.2,3.2,0,0,0-.342,1.543,2.923,2.923,0,0,0,.7,2.1,2.3,2.3,0,0,0,1.746.734,2.607,2.607,0,0,0,1.265-.316" transform="translate(28.284 -8.313)" fill="#fff"/>
              <path id="Path_4283" data-name="Path 4283" d="M116.233,58.961a3.206,3.206,0,0,1-1.24-.974,2.5,2.5,0,0,1-.493-1.379h1.8a1.242,1.242,0,0,0,.506.9,1.823,1.823,0,0,0,1.164.354,2.1,2.1,0,0,0,1.139-.278.862.862,0,0,0,.4-.721.763.763,0,0,0-.455-.708,9.043,9.043,0,0,0-1.429-.506,14.778,14.778,0,0,1-1.543-.506,2.716,2.716,0,0,1-1.025-.746,1.952,1.952,0,0,1-.43-1.328,2.144,2.144,0,0,1,.392-1.227,2.6,2.6,0,0,1,1.139-.873,4.241,4.241,0,0,1,1.708-.316,3.543,3.543,0,0,1,2.315.721,2.591,2.591,0,0,1,.936,1.973H119.37a1.247,1.247,0,0,0-.455-.9A1.7,1.7,0,0,0,117.8,52.1a1.736,1.736,0,0,0-1.05.266.82.82,0,0,0-.367.683.737.737,0,0,0,.24.569,1.553,1.553,0,0,0,.595.354c.228.089.582.2,1.037.329a12.385,12.385,0,0,1,1.505.493,2.781,2.781,0,0,1,1.012.734,2.021,2.021,0,0,1,.443,1.3,2.125,2.125,0,0,1-.392,1.278A2.654,2.654,0,0,1,119.7,59a4.158,4.158,0,0,1-1.708.316,4.487,4.487,0,0,1-1.784-.354" transform="translate(30.343 -8.31)" fill="#fff"/>
              <path id="Path_4284" data-name="Path 4284" d="M122.673,58.961a3.206,3.206,0,0,1-1.24-.974,2.5,2.5,0,0,1-.493-1.379h1.809a1.243,1.243,0,0,0,.506.9,1.847,1.847,0,0,0,1.164.354,2.1,2.1,0,0,0,1.139-.278.862.862,0,0,0,.4-.721.763.763,0,0,0-.455-.708,9.044,9.044,0,0,0-1.429-.506,14.779,14.779,0,0,1-1.543-.506,2.716,2.716,0,0,1-1.025-.746,1.952,1.952,0,0,1-.43-1.328,2.144,2.144,0,0,1,.392-1.227,2.6,2.6,0,0,1,1.139-.873,4.241,4.241,0,0,1,1.708-.316,3.519,3.519,0,0,1,2.315.721,2.591,2.591,0,0,1,.936,1.973h-1.746a1.247,1.247,0,0,0-.455-.9,1.7,1.7,0,0,0-1.113-.342,1.736,1.736,0,0,0-1.05.266.82.82,0,0,0-.367.683.783.783,0,0,0,.24.569,1.654,1.654,0,0,0,.595.354c.228.089.582.2,1.037.329a12.387,12.387,0,0,1,1.505.493,2.781,2.781,0,0,1,1.012.734,2.021,2.021,0,0,1,.443,1.3,2.125,2.125,0,0,1-.392,1.278,2.654,2.654,0,0,1-1.126.886,4.158,4.158,0,0,1-1.708.316,4.487,4.487,0,0,1-1.784-.354" transform="translate(32.05 -8.31)" fill="#fff"/>
              <path id="Path_4285" data-name="Path 4285" d="M127.886,50.01a1.113,1.113,0,0,1,.8-1.91,1.049,1.049,0,0,1,.772.316,1.162,1.162,0,0,1,0,1.594,1.04,1.04,0,0,1-.772.316,1.151,1.151,0,0,1-.8-.316m1.645,9.854h-1.746V51.452h1.746Z" transform="translate(33.807 -8.986)" fill="#fff"/>
              <path id="Path_4286" data-name="Path 4286" d="M133.893,51.607a4.025,4.025,0,0,1,3.732.139,3.738,3.738,0,0,1,1.417,1.518,4.8,4.8,0,0,1,.519,2.252,4.857,4.857,0,0,1-.519,2.264,3.814,3.814,0,0,1-3.441,2.113,3.836,3.836,0,0,1-1.733-.38,3.427,3.427,0,0,1-1.2-.974v1.227H130.92V48.47h1.746v4.137a3.312,3.312,0,0,1,1.214-1m3.555,2.4a2.476,2.476,0,0,0-.949-.961,2.584,2.584,0,0,0-1.265-.329,2.377,2.377,0,0,0-1.24.342,2.511,2.511,0,0,0-.949.974,3.044,3.044,0,0,0-.354,1.505,3.239,3.239,0,0,0,.354,1.518,2.547,2.547,0,0,0,.949.987,2.443,2.443,0,0,0,1.24.342,2.534,2.534,0,0,0,1.265-.342,2.583,2.583,0,0,0,.949-1,3.43,3.43,0,0,0,0-3.036" transform="translate(34.695 -8.888)" fill="#fff"/>
              <rect id="Rectangle_1623" data-name="Rectangle 1623" width="1.746" height="11.297" transform="translate(175.988 39.582)" fill="#fff"/>
              <path id="Path_4287" data-name="Path 4287" d="M150.075,55.634h-6.426a2.311,2.311,0,0,0,2.391,2.226,2.043,2.043,0,0,0,1.986-1.176H149.9a3.752,3.752,0,0,1-1.379,1.9,4.063,4.063,0,0,1-2.479.746,4.261,4.261,0,0,1-2.163-.544,3.862,3.862,0,0,1-1.493-1.531,4.594,4.594,0,0,1-.544-2.277,4.694,4.694,0,0,1,.531-2.277,3.72,3.72,0,0,1,1.48-1.518,4.414,4.414,0,0,1,2.188-.531,4.265,4.265,0,0,1,2.125.519,3.74,3.74,0,0,1,1.455,1.455,4.413,4.413,0,0,1,.519,2.163,5.829,5.829,0,0,1-.063.86m-1.758-1.429a1.966,1.966,0,0,0-.683-1.543,2.422,2.422,0,0,0-1.67-.582,2.239,2.239,0,0,0-1.543.569,2.345,2.345,0,0,0-.759,1.543h4.655Z" transform="translate(37.589 -8.31)" fill="#fff"/>
              <rect id="Rectangle_1624" data-name="Rectangle 1624" width="55.635" height="1.126" transform="translate(196.101 46.135)" fill="#fff"/>
              <rect id="Rectangle_1625" data-name="Rectangle 1625" width="55.635" height="1.126" transform="translate(0 46.135)" fill="#fff"/>
            </g>
          </g>
        </g>
      </g>
    </g>
  </g>
</svg>
